<?xml version="1.0" standalone="no"?>
<!DOCTYPE svg PUBLIC "-//W3C//DTD SVG 20010904//EN"
 "http://www.w3.org/TR/2001/REC-SVG-20010904/DTD/svg10.dtd">
<svg version="1.0" xmlns="http://www.w3.org/2000/svg"
 width="300.000000pt" height="300.000000pt" viewBox="0 0 300.000000 300.000000"
 preserveAspectRatio="xMidYMid meet">
<metadata>
Created by potrace 1.14, written by Peter Selinger 2001-2017
</metadata>
<g transform="translate(0.000000,300.000000) scale(0.100000,-0.100000)"
fill="#000000" stroke="none">
<path d="M112 2344 l-22 -15 0 -833 c0 -634 3 -835 12 -844 9 -9 337 -12 1414
-12 1262 0 1404 2 1418 16 14 14 16 104 16 840 0 811 0 824 -20 844 -20 20
-33 20 -1408 20 -1240 0 -1390 -2 -1410 -16z m2796 -846 l2 -818 -1390 0
-1390 0 0 820 0 820 1388 -2 1387 -3 3 -817z"/>
<path d="M210 2237 l-25 -13 -3 -721 c-2 -646 0 -723 14 -737 14 -14 84 -16
639 -16 554 0 625 2 639 16 14 14 16 94 16 734 l0 719 -22 15 c-20 14 -96 16
-628 16 -468 0 -611 -3 -630 -13z m771 -424 c104 -34 156 -119 147 -242 -6
-84 -46 -146 -118 -185 -47 -26 -69 -31 -155 -35 l-100 -6 -5 -124 -5 -123
-80 0 -80 0 -3 366 -2 366 174 0 c137 0 185 -4 227 -17z"/>
<path d="M750 1589 l0 -111 80 4 c69 3 83 6 105 29 53 52 41 149 -21 175 -19
8 -63 14 -99 14 l-65 0 0 -111z"/>
<path d="M1568 2239 c-17 -9 -18 -55 -18 -734 l0 -724 22 -15 c20 -14 97 -16
633 -16 512 0 614 2 631 14 18 14 19 35 22 730 2 706 2 716 -18 736 -20 20
-31 20 -637 20 -401 -1 -624 -4 -635 -11z m1247 -739 l0 -705 -612 -3 -613 -2
0 710 0 710 613 -2 612 -3 0 -705z"/>
<path d="M1760 1828 c0 -7 29 -170 65 -363 36 -192 65 -353 65 -357 0 -4 47
-8 104 -8 l104 0 15 68 c8 37 30 144 47 237 37 192 42 211 47 175 2 -14 25
-127 50 -252 l47 -228 106 0 105 0 63 353 c34 193 62 360 62 370 0 16 -9 18
-77 15 l-77 -3 -27 -184 c-15 -101 -33 -231 -40 -288 -6 -57 -14 -102 -16
-100 -2 2 -12 51 -23 108 -11 57 -39 186 -62 287 l-42 183 -70 -3 -71 -3 -41
-175 c-22 -96 -49 -223 -59 -282 -11 -60 -22 -108 -25 -108 -3 0 -13 62 -22
138 -9 75 -27 203 -39 285 l-22 147 -84 0 c-60 0 -83 -3 -83 -12z"/>
</g>
</svg>
